<svg width="79" height="26" viewBox="0 0 79 26" fill="none" xmlns="http://www.w3.org/2000/svg">
<g clip-path="url(#clip0_1253_2)">
<path d="M12 25C18.6274 25 24 19.6274 24 13C24 6.37258 18.6274 1 12 1C5.37258 1 0 6.37258 0 13C0 19.6274 5.37258 25 12 25Z" fill="#F7931A"/>
<path d="M17.3917 11.515C17.6272 9.943 16.4295 9.09775 14.793 8.53375L15.324 6.40375L14.028 6.08125L13.5105 8.155C13.17 8.0695 12.8205 7.99 12.4717 7.9105L12.993 5.82325L11.697 5.5L11.166 7.62925C10.884 7.56475 10.6065 7.50175 10.338 7.43425L10.3395 7.4275L8.55149 6.98125L8.20649 8.36575C8.20649 8.36575 9.16874 8.58625 9.14849 8.59975C9.67349 8.731 9.76799 9.07825 9.75224 9.35425L9.14774 11.7805C9.18374 11.7895 9.23024 11.803 9.28274 11.8232L9.14549 11.7895L8.29799 15.1885C8.23349 15.3475 8.07074 15.5867 7.70324 15.496C7.71674 15.5147 6.76124 15.2612 6.76124 15.2612L6.11774 16.7448L7.80524 17.1655C8.11874 17.2443 8.42624 17.3267 8.72849 17.404L8.19224 19.558L9.48749 19.8805L10.0185 17.7505C10.3725 17.8457 10.716 17.9342 11.052 18.0182L10.5225 20.1392L11.8185 20.4618L12.3547 18.3123C14.5657 18.7308 16.2277 18.562 16.9275 16.5625C17.4915 14.953 16.8997 14.0238 15.7365 13.4185C16.584 13.2235 17.2215 12.6663 17.3917 11.515ZM14.4292 15.6685C14.0295 17.2788 11.3182 16.408 10.4392 16.1898L11.1517 13.336C12.0307 13.5557 14.8485 13.99 14.4292 15.6685ZM14.8305 11.4918C14.4652 12.9565 12.2092 12.2118 11.478 12.0295L12.123 9.442C12.8542 9.62425 15.2115 9.964 14.8305 11.4918Z" fill="white"/>
</g>
<rect x="17.5" y="0.5" width="25" height="25" stroke="white"/>
<g clip-path="url(#clip1_1253_2)">
<path d="M30 25C36.6274 25 42 19.6274 42 13C42 6.37258 36.6274 1 30 1C23.3726 1 18 6.37258 18 13C18 19.6274 23.3726 25 30 25Z" fill="#627EEA"/>
<path d="M30.3735 4V10.6525L35.9963 13.165L30.3735 4Z" fill="white" fill-opacity="0.602"/>
<path d="M30.3735 4L24.75 13.165L30.3735 10.6525V4Z" fill="white"/>
<path d="M30.3735 17.476V21.9963L36 14.212L30.3735 17.476Z" fill="white" fill-opacity="0.602"/>
<path d="M30.3735 21.9963V17.4753L24.75 14.212L30.3735 21.9963Z" fill="white"/>
<path d="M30.3735 16.4298L35.9963 13.1651L30.3735 10.6541V16.4298Z" fill="white" fill-opacity="0.2"/>
<path d="M24.75 13.1651L30.3735 16.4298V10.6541L24.75 13.1651Z" fill="white" fill-opacity="0.602"/>
</g>
<rect x="35.5" y="0.5" width="25" height="25" stroke="white"/>
<g clip-path="url(#clip2_1253_2)">
<path d="M48 25C54.6274 25 60 19.6274 60 13C60 6.37258 54.6274 1 48 1C41.3726 1 36 6.37258 36 13C36 19.6274 41.3726 25 48 25Z" fill="#26A17B"/>
<path fill-rule="evenodd" clip-rule="evenodd" d="M49.4415 14.0373V14.0358C49.359 14.0418 48.9337 14.0673 47.985 14.0673C47.2275 14.0673 46.6942 14.0448 46.5067 14.0358V14.038C43.5907 13.9098 41.4142 13.402 41.4142 12.7945C41.4142 12.1878 43.5907 11.68 46.5067 11.5495V13.5325C46.6972 13.546 47.2432 13.5783 47.9977 13.5783C48.903 13.5783 49.3567 13.5408 49.4415 13.5333V11.551C52.3515 11.6808 54.5227 12.1885 54.5227 12.7945C54.5227 13.402 52.3515 13.9083 49.4415 14.0373ZM49.4415 11.3448V9.57026H53.502V6.86426H42.4462V9.57026H46.5067V11.344C43.2067 11.4955 40.725 12.1495 40.725 12.9325C40.725 13.7155 43.2067 14.3688 46.5067 14.521V20.2075H49.4415V14.5195C52.7362 14.368 55.212 13.7148 55.212 12.9325C55.212 12.1503 52.7362 11.497 49.4415 11.3448Z" fill="white"/>
</g>
<rect x="53.5" y="0.5" width="25" height="25" stroke="white"/>
<g clip-path="url(#clip3_1253_2)">
<path d="M66 25C72.6274 25 78 19.6274 78 13C78 6.37258 72.6274 1 66 1C59.3726 1 54 6.37258 54 13C54 19.6274 59.3726 25 66 25Z" fill="#23292F"/>
<path d="M71.3025 7H73.47L68.9587 11.4677C68.17 12.2448 67.1072 12.6804 66 12.6804C64.8928 12.6804 63.83 12.2448 63.0413 11.4677L58.5262 7H60.6975L64.125 10.3922C64.6241 10.8849 65.2972 11.1611 65.9985 11.1611C66.6998 11.1611 67.3729 10.8849 67.872 10.3922L71.3025 7ZM60.6713 19.4222H58.5L63.0413 14.9275C63.83 14.1504 64.8928 13.7148 66 13.7148C67.1072 13.7148 68.17 14.1504 68.9587 14.9275L73.5 19.4215H71.3287L67.875 16C67.3759 15.5074 66.7028 15.2311 66.0015 15.2311C65.3002 15.2311 64.6271 15.5074 64.128 16L60.6705 19.4222H60.6713Z" fill="white"/>
</g>
<defs>
<clipPath id="clip0_1253_2">
<rect width="24" height="24" fill="white" transform="translate(0 1)"/>
</clipPath>
<clipPath id="clip1_1253_2">
<rect width="24" height="24" fill="white" transform="translate(18 1)"/>
</clipPath>
<clipPath id="clip2_1253_2">
<rect width="24" height="24" fill="white" transform="translate(36 1)"/>
</clipPath>
<clipPath id="clip3_1253_2">
<rect width="24" height="24" fill="white" transform="translate(54 1)"/>
</clipPath>
</defs>
</svg>
